<svg width="680" height="182" viewBox="0 0 680 182" fill="none" xmlns="http://www.w3.org/2000/svg">
<g clip-path="url(#clip0_72_70)">
<path opacity="0.5" d="M679.72 61.38H634.93V16.59H599.08V61.38H554.28V97.22H599.08V142.02H634.93V97.22H679.72V61.38Z" fill="white"/>
<path d="M0 18.77C10.75 17.1 25.03 16.18 39.86 16.18C63.77 16.18 78.79 20.07 91.21 28.6C104.92 38.05 113.83 53.63 113.83 76.62C113.83 102.01 104.18 118.5 91.96 127.97C78.24 138.72 57.85 143.53 33.37 143.53C17.25 143.53 6.49 142.42 0.01 141.3V18.77H0ZM33.55 117.02C35.22 117.39 38.37 117.39 40.59 117.39C62.28 117.77 78.22 105.71 78.22 77.54C78.22 53.25 63.76 41.76 43.74 41.76C38.37 41.76 35.22 42.13 33.54 42.51V117.02H33.55Z" fill="white"/>
<path d="M118.44 18.77C127.9 17.29 142.17 16.17 158.85 16.17C177.95 16.17 191.66 18.77 201.12 25.81C209.09 31.93 213.54 40.83 213.54 53.07C213.54 68.63 201.87 79.75 192.04 83.28V84.03C200.38 87.55 204.83 95.52 207.98 106.27C211.87 119.07 215.95 137.23 218.36 142.05H184.07C182.22 138.34 179.06 128.71 175.36 113.32C172.03 98.3 167.39 95.15 157.01 95.15H151.64V142.05H118.45V18.77H118.44ZM151.62 71.23H160.33C172.94 71.23 180.17 64.93 180.17 55.66C180.17 46.39 174.05 41.01 162.93 40.83C156.62 40.83 153.29 41.2 151.63 41.57V71.22L151.62 71.23Z" fill="white"/>
<path d="M253.07 77.28C253.07 64.34 252.67 53.18 252.27 44.03H283.14L284.73 56.38H285.13C292.5 46.82 303.45 41.84 316.8 41.84C337.31 41.84 357.23 59.96 357.23 91.83C357.23 127.69 333.92 144.22 312.61 144.22C301.46 144.22 292.89 139.84 289.31 134.86H288.91V181.47H253.06V77.3L253.07 77.28ZM288.92 99.2C288.92 101.39 289.13 103.38 289.52 105.18C290.91 111.55 296.3 116.93 303.47 116.93C314.22 116.93 320.8 107.56 320.8 93.42C320.8 79.28 315.23 69.71 303.86 69.71C296.7 69.71 290.52 75.49 289.33 82.46C288.93 83.86 288.93 85.46 288.93 87.04V99.2H288.92Z" fill="white"/>
<path d="M361.38 77.09C361.38 61.56 360.97 52.19 360.58 44.03H391.25L392.45 61.75H393.24C398.42 46.81 410.97 41.83 419.33 41.83C422.52 41.83 423.91 41.83 426.51 42.43V76.09C423.91 75.49 421.13 75.1 417.34 75.1C406.79 75.1 399.61 79.47 397.82 87.45C397.43 89.24 397.22 91.23 397.22 93.62V142.02H361.37V77.09H361.38Z" fill="white"/>
<path d="M468.31 16.93C468.31 26.49 461.14 34.06 449.79 34.06C438.44 34.06 431.66 26.49 431.66 16.93C431.66 7.37 438.83 0 449.99 0C461.15 0 468.11 7.17 468.31 16.93ZM432.06 44.02H467.91V142.01H432.06V44.02Z" fill="white"/>
<path d="M477.03 77.28C477.03 64.34 476.63 52.99 476.23 44.03H507.1L508.7 56.57H509.5C513.09 51.39 522.45 41.83 538.78 41.83C561.69 41.83 574.03 57.37 574.03 84.25V142.01H538.18V88.63C538.18 77.27 534.2 70.7 525.64 70.7C518.67 70.7 515.48 75.48 513.89 79.27C513.09 81.06 512.88 83.85 512.88 86.44V142.01H477.03V77.27V77.28Z" fill="white"/>
</g>
<defs>
<clipPath id="clip0_72_70">
<rect width="679.72" height="181.45" fill="white"/>
</clipPath>
</defs>
</svg>
